<svg width="16" height="17" viewBox="0 0 16 17" fill="none" xmlns="http://www.w3.org/2000/svg">
<g id="Category">
<path id="Vector" d="M12.4348 4.96913H10.5109V4.32783C10.5109 3.81758 10.3082 3.32823 9.94743 2.96743C9.58662 2.60663 9.09727 2.40393 8.58702 2.40393H7.30442C6.79417 2.40393 6.30482 2.60663 5.94402 2.96743C5.58321 3.32823 5.38052 3.81758 5.38052 4.32783V4.96913H3.45662C2.94637 4.96913 2.45701 5.17183 2.09621 5.53263C1.73541 5.89343 1.53271 6.38278 1.53271 6.89304V12.6647C1.53271 13.175 1.73541 13.6643 2.09621 14.0251C2.45701 14.3859 2.94637 14.5886 3.45662 14.5886H12.4348C12.9451 14.5886 13.4344 14.3859 13.7952 14.0251C14.156 13.6643 14.3587 13.175 14.3587 12.6647V6.89304C14.3587 6.38278 14.156 5.89343 13.7952 5.53263C13.4344 5.17183 12.9451 4.96913 12.4348 4.96913ZM6.66312 4.32783C6.66312 4.15775 6.73069 3.99463 6.85095 3.87436C6.97122 3.7541 7.13434 3.68653 7.30442 3.68653H8.58702C8.75711 3.68653 8.92022 3.7541 9.04049 3.87436C9.16076 3.99463 9.22832 4.15775 9.22832 4.32783V4.96913H6.66312V4.32783ZM13.0761 12.6647C13.0761 12.8348 13.0086 12.9979 12.8883 13.1182C12.768 13.2385 12.6049 13.306 12.4348 13.306H3.45662C3.28653 13.306 3.12342 13.2385 3.00315 13.1182C2.88288 12.9979 2.81532 12.8348 2.81532 12.6647V9.13759C4.44823 9.78539 6.189 10.1183 7.94572 10.1188C9.70238 10.1177 11.443 9.7848 13.0761 9.13759V12.6647ZM13.0761 7.73314C11.459 8.44356 9.712 8.81038 7.94572 8.81038C6.17945 8.81038 4.43242 8.44356 2.81532 7.73314V6.89304C2.81532 6.72295 2.88288 6.55983 3.00315 6.43957C3.12342 6.3193 3.28653 6.25173 3.45662 6.25173H12.4348C12.6049 6.25173 12.768 6.3193 12.8883 6.43957C13.0086 6.55983 13.0761 6.72295 13.0761 6.89304V7.73314Z" fill="#231E00"/>
</g>
</svg>
