<svg width="17" height="17" viewBox="0 0 17 17" fill="none" xmlns="http://www.w3.org/2000/svg">
<g id="location_on_white_24dp 1" clip-path="url(#clip0_392_424)">
<path id="Vector" d="M8.57211 2.08362C6.09028 2.08362 4.08301 4.09089 4.08301 6.57272C4.08301 9.93955 8.57211 14.9096 8.57211 14.9096C8.57211 14.9096 13.0612 9.93955 13.0612 6.57272C13.0612 4.09089 11.0539 2.08362 8.57211 2.08362ZM5.36561 6.57272C5.36561 4.80273 6.80212 3.36622 8.57211 3.36622C10.3421 3.36622 11.7786 4.80273 11.7786 6.57272C11.7786 8.41967 9.93167 11.1837 8.57211 12.9088C7.23821 11.1965 5.36561 8.40043 5.36561 6.57272Z" fill="#231E00"/>
<path id="Vector_2" d="M8.572 8.17592C9.45745 8.17592 10.1753 7.45812 10.1753 6.57267C10.1753 5.68722 9.45745 4.96942 8.572 4.96942C7.68655 4.96942 6.96875 5.68722 6.96875 6.57267C6.96875 7.45812 7.68655 8.17592 8.572 8.17592Z" fill="#231E00"/>
</g>
<defs>
<clipPath id="clip0_392_424">
<rect width="15.3912" height="15.3912" fill="white" transform="translate(0.876709 0.800659)"/>
</clipPath>
</defs>
</svg>
