<svg width="17" height="17" viewBox="0 0 17 17" fill="none" xmlns="http://www.w3.org/2000/svg">
<g id="schedule_white_24dp 1" clip-path="url(#clip0_392_434)">
<path id="Vector" d="M8.31138 2.08362C4.7714 2.08362 1.90479 4.95665 1.90479 8.49662C1.90479 12.0366 4.7714 14.9096 8.31138 14.9096C11.8578 14.9096 14.7308 12.0366 14.7308 8.49662C14.7308 4.95665 11.8578 2.08362 8.31138 2.08362ZM8.31779 13.627C5.48324 13.627 3.18739 11.3312 3.18739 8.49662C3.18739 5.66208 5.48324 3.36622 8.31779 3.36622C11.1523 3.36622 13.4482 5.66208 13.4482 8.49662C13.4482 11.3312 11.1523 13.627 8.31779 13.627ZM8.1767 5.29012H8.13823C7.88171 5.29012 7.67649 5.49534 7.67649 5.75186V8.7788C7.67649 9.00325 7.79192 9.21488 7.99073 9.33032L10.6521 10.9272C10.8702 11.0554 11.1523 10.9913 11.2806 10.7732C11.4153 10.5552 11.3447 10.2666 11.1203 10.1384L8.63844 8.66336V5.75186C8.63844 5.49534 8.43323 5.29012 8.1767 5.29012Z" fill="#231E00"/>
</g>
<defs>
<clipPath id="clip0_392_434">
<rect width="15.3912" height="15.3912" fill="white" transform="translate(0.621338 0.800659)"/>
</clipPath>
</defs>
</svg>
